# Blender v2.93.4 OBJ File: 'Rocks.blend'
# www.blender.org
o Icosphere.012_Icosphere.013
v 75.008369 34.105072 28.911079
v 77.948174 32.399567 27.066444
v 75.173660 35.362671 28.503983
v 71.302673 37.005600 30.245026
v 62.541649 44.253925 29.090712
v 60.798798 43.918118 27.353405
v 60.268761 43.966095 29.776276
v 61.827080 43.675354 30.675529
v 62.509155 38.432892 33.925133
v 61.009609 38.271862 33.305912
v 61.360806 35.979050 33.122318
v 63.116760 36.035992 33.887993
v 75.519806 15.037970 21.496693
v 74.028503 14.166677 22.701717
v 73.596207 13.723129 21.241306
v 82.447746 25.736818 24.502439
v 81.332062 24.715206 25.299221
v 82.134705 24.218750 23.864157
v 85.158096 27.462183 20.204252
v 85.761024 26.840395 17.785490
v 84.336830 27.926245 15.435585
v 85.622040 28.206947 18.589573
v 52.367126 28.656923 12.036682
v 53.549171 32.198006 15.814943
v 52.566502 29.486439 10.228111
v 53.025764 28.283920 10.401844
v 68.734833 13.381917 22.663416
v 66.718437 14.201129 22.139597
v 68.300560 13.025896 21.285860
v 73.778519 16.820629 17.200920
v 75.668823 17.344158 18.194481
v 82.026871 27.508936 12.591751
v 82.091980 26.180157 13.252410
v 80.298141 25.660954 12.004164
v 79.110100 27.967363 10.769581
v 74.294754 35.266663 10.280178
v 78.250984 31.719585 10.976824
v 73.769951 33.922379 8.485630
v 72.518211 34.947342 8.595150
v 63.075329 29.517786 5.622095
v 66.572960 29.773722 6.205907
v 63.359955 28.264618 5.898405
vt 0.298094 0.349754
vt 0.247474 0.484894
vt 0.013628 0.622544
vt 0.275618 0.510598
vt 0.449250 0.946872
vt 0.200411 0.732036
vt 0.285774 0.448631
vt 0.323550 0.347285
vt 0.347355 0.387789
vt 0.213319 0.548188
vt 0.159665 0.705342
vt 0.051531 0.643230
vt 0.363255 0.364694
vt 0.337398 0.320699
vt 0.508933 0.102744
vt 0.321313 0.293470
vt 0.091733 0.118303
vt 0.531498 0.026179
vt 0.067747 0.173966
vt 0.379251 0.392431
vt 0.554868 0.076647
vt 0.554868 0.798327
vt 0.973511 0.425565
vt 0.943130 0.541730
vt 0.900782 0.381241
vt 0.980063 0.106983
vt 0.921693 0.333387
vt 0.824588 0.147317
vt 0.440430 0.944568
vt 0.354335 0.439447
vt 0.535504 0.861149
vt 0.979792 0.103458
vt 0.979432 0.368160
vt 0.866462 0.047161
vt 0.982088 0.105847
vt 0.822917 0.070714
vt 0.796703 0.133731
vt 0.718427 0.148325
vt 0.569186 0.579743
vt 0.633546 0.212057
vt 0.653104 0.404476
vt 0.949616 0.544643
vt 0.592180 0.585738
vt 0.675499 0.413983
vt 0.904566 0.378471
vt 0.945258 0.540172
vt 0.675707 0.414148
vt 0.806355 0.186955
vt 0.905236 0.375017
vt 0.676142 0.411826
vt 0.656325 0.202114
vt 0.767030 0.181474
vt 0.671415 0.348836
vt 0.358890 0.428303
vt 0.408532 0.939971
vt 0.433013 0.948267
vt 0.439605 0.966599
vt 0.167152 0.718820
vt 0.181936 0.724336
vt 0.187605 0.751285
vt 0.009022 0.645388
vt 0.021336 0.624192
vt 0.564192 0.039140
vt 0.564192 0.075056
vt 0.550258 0.829753
vt 0.554034 0.870842
vt 0.057383 0.138910
vt 0.065510 0.130076
vt 0.407336 0.941006
vt 0.161021 0.732697
vt 0.038303 0.296778
vt 0.009191 0.537655
vt 0.459069 0.953901
vt 0.439058 0.947401
vt 0.003298 0.634788
vt 0.515596 0.106712
vt 0.564192 0.842440
vn 0.2732 0.9548 0.1172
vn 0.6375 0.5794 0.5078
vn 0.8926 0.4494 0.0370
vn 0.4465 -0.0142 0.8947
vn 0.3618 -0.7304 0.5794
vn 0.4877 -0.3130 0.8150
vn 0.4859 0.4308 0.7605
vn 0.0570 0.7241 0.6873
vn -0.0094 0.2606 0.9654
vn 0.6896 0.2834 0.6664
vn 0.7730 -0.0658 0.6309
vn 0.8991 0.0355 0.4364
vn -0.6737 0.0987 0.7324
vn -0.6078 0.7159 0.3436
vn -0.9504 0.2725 0.1502
vn -0.3296 0.8984 -0.2901
vn 0.1131 0.6916 -0.7134
vn -0.7653 0.2357 -0.5990
vn 0.4707 0.8010 -0.3700
vn -0.6297 -0.3004 0.7164
vn -0.9537 -0.2886 0.0849
vn -0.6254 -0.6896 0.3650
vn 0.3212 -0.9236 -0.2093
vn -0.2197 -0.9590 -0.1789
vn 0.2425 -0.7189 -0.6514
vn 0.7659 -0.5709 0.2957
vn 0.6185 -0.6628 -0.4222
vn 0.6824 -0.5220 -0.5116
vn -0.0012 -0.2042 0.9789
vn -0.1172 -0.7818 0.6124
vn 0.7139 -0.6986 -0.0489
vn 0.9013 -0.3880 -0.1928
vn 0.8135 0.2407 -0.5294
vn 0.6842 0.0119 -0.7292
vn 0.6434 0.4518 -0.6180
vn -0.1932 0.2433 -0.9505
vn -0.6176 -0.5656 -0.5465
vn -0.0810 -0.4714 -0.8782
vn 0.4415 -0.4907 -0.7512
vn 0.4206 0.3242 -0.8473
vn 0.4323 -0.0916 -0.8971
vn 0.2221 -0.0501 -0.9737
s 1
f 5/1/1 3/2/2 22/3/3
f 1/4/4 14/5/5 17/6/6
f 4/7/7 8/8/8 9/9/9
f 2/10/10 16/11/11 19/12/12
f 10/13/13 7/14/14 24/15/15
f 6/16/16 39/17/17 25/18/18
f 5/1/1 22/3/3 36/19/19
f 11/20/20 23/21/21 28/22/22
f 15/23/23 29/24/24 30/25/25
f 18/26/26 31/27/27 33/28/28
f 14/29/5 12/30/29 27/31/30
f 18/32/26 13/33/31 31/27/27
f 20/34/32 18/35/26 33/28/28
f 21/36/33 32/37/34 37/38/35
f 25/39/18 39/40/17 40/41/36
f 29/42/24 26/43/37 42/44/38
f 30/45/25 29/46/24 42/47/38
f 34/48/39 30/49/25 42/50/38
f 38/51/40 35/52/41 41/53/42
f 1/4/4 3/2/2 4/7/7
f 5/1/1 7/14/14 8/8/8
f 9/9/9 11/20/20 12/54/29
f 13/55/31 14/56/5 15/57/23
f 16/58/11 17/59/6 18/60/26
f 20/61/32 22/62/3 19/12/12
f 23/21/21 25/63/18 26/64/37
f 27/31/30 28/65/22 29/66/24
f 32/37/34 34/48/39 35/52/41
f 36/19/19 38/67/40 39/68/17
f 40/41/36 41/53/42 42/44/38
f 12/54/29 4/7/7 9/9/9
f 5/1/1 4/7/7 3/2/2
f 10/13/13 8/8/8 7/14/14
f 2/10/10 22/3/3 3/2/2
f 2/10/10 17/6/6 16/11/11
f 13/69/31 17/6/6 14/5/5
f 18/70/26 19/12/12 16/11/11
f 6/16/16 36/19/19 39/17/17
f 37/71/35 22/3/3 21/72/33
f 11/20/20 24/15/15 23/21/21
f 6/16/16 24/15/15 7/14/14
f 15/73/23 27/31/30 29/66/24
f 28/22/22 12/30/29 11/20/20
f 30/25/25 13/33/31 15/23/23
f 21/36/33 33/28/28 32/37/34
f 26/64/37 28/22/22 23/21/21
f 34/48/39 31/27/27 30/49/25
f 35/52/41 37/38/35 32/37/34
f 26/43/37 40/41/36 42/44/38
f 41/53/42 39/40/17 38/51/40
f 41/53/42 34/48/39 42/50/38
f 1/4/4 12/54/29 14/74/5
f 1/4/4 2/10/10 3/2/2
f 5/1/1 6/16/16 7/14/14
f 9/9/9 10/13/13 11/20/20
f 20/61/32 21/75/33 22/62/3
f 23/21/21 24/76/15 25/63/18
f 32/37/34 33/28/28 34/48/39
f 36/19/19 37/71/35 38/67/40
f 12/54/29 1/4/4 4/7/7
f 5/1/1 8/8/8 4/7/7
f 10/13/13 9/9/9 8/8/8
f 2/10/10 19/12/12 22/3/3
f 2/10/10 1/4/4 17/6/6
f 13/69/31 18/60/26 17/6/6
f 18/70/26 20/61/32 19/12/12
f 6/16/16 5/1/1 36/19/19
f 37/71/35 36/19/19 22/3/3
f 11/20/20 10/13/13 24/15/15
f 6/16/16 25/18/18 24/15/15
f 15/73/23 14/29/5 27/31/30
f 28/22/22 27/31/30 12/30/29
f 30/25/25 31/27/27 13/33/31
f 21/36/33 20/34/32 33/28/28
f 26/64/37 29/77/24 28/22/22
f 34/48/39 33/28/28 31/27/27
f 35/52/41 38/51/40 37/38/35
f 26/43/37 25/39/18 40/41/36
f 41/53/42 40/41/36 39/40/17
f 41/53/42 35/52/41 34/48/39
