# Blender v3.0.0 OBJ File: 'IntactPillar.blend'
# www.blender.org
o IntactPillar_Cube.003
v -1.000000 0.416667 1.000000
v -1.000000 9.583334 1.000000
v -1.000000 9.583333 -1.000000
v -1.000000 0.416667 -1.000000
v 1.000000 9.583333 -1.000000
v 1.000000 0.416667 -1.000000
v 1.000000 9.583333 1.000000
v 1.000000 0.416667 1.000000
v -1.567783 0.000000 -1.567783
v -1.567783 0.000000 1.567783
v -1.567783 10.000000 1.567783
v -1.567783 10.000000 -1.567783
v 1.567783 0.000000 -1.567783
v 1.567783 10.000000 -1.567783
v 1.567783 0.000000 1.567783
v 1.567783 10.000000 1.567783
v -1.000000 4.507784 -1.000000
v -1.000000 5.492215 -1.000000
v -1.000000 6.476647 1.000000
v -0.800000 6.721462 0.800000
v -0.800000 7.861873 0.800000
v -1.000000 8.106688 1.000000
v -1.000000 8.106688 -1.000000
v -0.800000 7.861872 -0.800000
v -0.800000 6.721461 -0.800000
v -1.000000 6.476646 -1.000000
v -1.000000 4.507785 1.000000
v -1.000000 5.492216 1.000000
v 1.000000 8.106688 -1.000000
v 0.800000 7.861872 -0.800000
v 0.800000 6.721461 -0.800000
v 1.000000 6.476646 -1.000000
v 1.000000 4.507784 1.000000
v 1.000000 5.492215 1.000000
v -0.640000 1.668467 0.640000
v -0.640000 3.255985 0.640000
v 0.640000 1.668466 0.640000
v 0.640000 3.255984 0.640000
v 1.000000 8.106688 1.000000
v 0.800000 7.861872 0.800000
v 0.800000 6.721461 0.800000
v 1.000000 6.476646 1.000000
v 1.000000 4.507784 -1.000000
v 1.000000 5.492215 -1.000000
v 0.640000 1.668466 -0.640000
v 0.640000 3.255984 -0.640000
v -0.640000 1.668466 -0.640000
v -0.640000 3.255984 -0.640000
v -0.908876 6.476647 0.908876
v -0.908876 6.578910 0.908876
v -0.908876 6.578909 -0.908876
v -0.908876 6.476646 -0.908876
v -0.908876 8.004425 0.908876
v -0.908876 8.106688 0.908876
v -0.908876 8.106688 -0.908876
v -0.908876 8.004423 -0.908876
v 0.908876 6.578909 -0.908876
v 0.908876 6.476646 -0.908876
v 0.908876 8.106688 -0.908876
v 0.908876 8.004423 -0.908876
v 0.908876 6.578909 0.908876
v 0.908876 6.476646 0.908876
v 0.908876 8.106688 0.908876
v 0.908876 8.004423 0.908876
v -1.567783 9.871923 1.567783
v -1.279194 9.583334 1.279194
v -1.529120 9.727629 1.529120
v -1.423488 9.621998 1.423488
v -1.567783 0.128077 -1.567783
v -1.279194 0.416667 -1.279194
v -1.529120 0.272372 -1.529120
v -1.423488 0.378003 -1.423488
v 1.567783 0.128077 -1.567783
v 1.279194 0.416667 -1.279194
v 1.529120 0.272372 -1.529120
v 1.423488 0.378003 -1.423488
v 1.567783 0.128077 1.567783
v 1.279194 0.416667 1.279194
v 1.529120 0.272372 1.529120
v 1.423488 0.378003 1.423488
v -1.279194 0.416667 1.279194
v -1.567783 0.128077 1.567783
v -1.423488 0.378003 1.423488
v -1.529120 0.272372 1.529120
v -1.279194 9.583333 -1.279194
v -1.567783 9.871922 -1.567783
v -1.423488 9.621997 -1.423489
v -1.529120 9.727628 -1.529120
v 1.279194 9.583333 -1.279194
v 1.567783 9.871922 -1.567783
v 1.423488 9.621997 -1.423488
v 1.529119 9.727628 -1.529119
v 1.279194 9.583333 1.279194
v 1.567783 9.871922 1.567783
v 1.423489 9.621997 1.423488
v 1.529120 9.727628 1.529120
v -0.986169 4.507785 1.256477
v -1.256477 4.507785 0.986169
v -1.065340 4.507785 1.065340
v -1.121323 4.507785 1.220263
v -1.220263 4.507785 1.121323
v 1.256477 4.507784 0.986169
v 0.986169 4.507784 1.256477
v 1.065340 4.507784 1.065340
v 1.220263 4.507784 1.121323
v 1.121323 4.507784 1.220263
v -1.256477 5.492216 0.986169
v -0.986169 5.492216 1.256477
v -1.065340 5.492216 1.065340
v -1.220263 5.492216 1.121323
v -1.121323 5.492216 1.220263
v 0.986169 5.492215 1.256477
v 1.256477 5.492215 0.986169
v 1.065340 5.492215 1.065340
v 1.121323 5.492215 1.220263
v 1.220263 5.492215 1.121323
v 0.986169 4.507784 -1.256477
v 1.256477 4.507784 -0.986169
v 1.065340 4.507784 -1.065340
v 1.121323 4.507784 -1.220263
v 1.220263 4.507784 -1.121323
v -1.256477 4.507784 -0.986169
v -0.986169 4.507784 -1.256477
v -1.065340 4.507784 -1.065340
v -1.220263 4.507784 -1.121323
v -1.121323 4.507784 -1.220263
v 1.256477 5.492215 -0.986169
v 0.986169 5.492215 -1.256477
v 1.065340 5.492215 -1.065340
v 1.220263 5.492215 -1.121323
v 1.121323 5.492215 -1.220263
v -0.986169 5.492215 -1.256477
v -1.256477 5.492215 -0.986169
v -1.065340 5.492215 -1.065340
v -1.121323 5.492215 -1.220263
v -1.220263 5.492215 -1.121323
v -0.800000 2.342083 0.800000
v -0.800000 2.582370 0.800000
v 0.800000 2.342082 -0.800000
v 0.800000 2.582369 -0.800000
v 0.800000 2.582369 0.800000
v 0.800000 2.342082 0.800000
v -0.800000 2.582369 -0.800000
v -0.800000 2.342082 -0.800000
v -0.961288 2.582370 0.961288
v -1.031056 2.512603 1.031056
v -0.961288 2.342083 0.961288
v -1.031056 2.411850 1.031056
v -1.031056 2.411849 -1.031056
v -0.961288 2.342082 -0.961288
v -0.961288 2.582369 -0.961288
v -1.031056 2.512602 -1.031056
v 1.031056 2.512602 1.031056
v 0.961288 2.582369 0.961288
v 0.961288 2.342082 0.961288
v 1.031056 2.411849 1.031056
v 0.961288 2.342082 -0.961288
v 1.031056 2.411849 -1.031056
v 1.031056 2.512602 -1.031056
v 0.961288 2.582369 -0.961288
vt 0.393879 0.388400
vt 0.232390 0.408182
vt 0.252172 0.388400
vt 0.211080 0.949913
vt 0.202005 0.727746
vt 0.211081 0.727746
vt 0.326792 0.843527
vt 0.431417 0.701820
vt 0.431417 0.843527
vt 0.945506 0.701820
vt 0.936431 0.923986
vt 0.936431 0.701820
vt 0.323169 0.985234
vt 0.424171 0.843527
vt 0.424171 0.985234
vt 0.424171 0.985234
vt 0.525174 0.843527
vt 0.525174 0.985234
vt 0.401363 0.179197
vt 0.239874 0.198979
vt 0.259656 0.179197
vt 0.104626 0.586039
vt 0.000000 0.727746
vt 0.000000 0.586039
vt 0.985791 0.136228
vt 0.976716 0.358394
vt 0.976716 0.136228
vt 0.963214 0.923986
vt 0.972289 0.701820
vt 0.972289 0.923986
vt 0.401363 0.037490
vt 0.421145 0.198979
vt 0.922002 0.136228
vt 0.912927 0.358394
vt 0.912927 0.136228
vt 0.259656 0.037490
vt 0.421145 0.017708
vt 0.232390 0.226911
vt 0.252172 0.246693
vt 0.393879 0.246693
vt 0.413661 0.408182
vt 0.948785 0.136228
vt 0.939710 0.358394
vt 0.939710 0.136228
vt 0.962993 0.418406
vt 0.953919 0.640572
vt 0.953919 0.418406
vt 0.980701 0.640572
vt 0.989777 0.418406
vt 0.989777 0.640572
vt 0.000000 0.444332
vt 0.222166 0.222166
vt 0.222166 0.444332
vt 0.413661 0.226911
vt 0.222166 0.000000
vt 0.000000 0.222166
vt 0.000000 0.000000
vt 0.737682 0.328411
vt 0.561538 0.430033
vt 0.737682 0.281176
vt 0.647287 0.560113
vt 0.646552 0.465641
vt 0.646552 0.575858
vt 0.101003 0.727746
vt 0.000000 0.869454
vt 0.000000 0.727746
vt 0.685186 0.141707
vt 0.580561 0.000000
vt 0.685186 0.000000
vt 0.222166 0.843527
vt 0.326792 0.701820
vt 0.326792 0.843527
vt 0.561538 0.414287
vt 0.484131 0.495449
vt 0.789812 0.000000
vt 0.788572 0.283585
vt 0.788572 0.141878
vt 0.830215 0.395331
vt 0.835366 0.587345
vt 0.835366 0.445638
vt 0.787876 0.221407
vt 0.787332 0.425463
vt 0.787332 0.283756
vt 0.538249 0.659665
vt 0.538249 0.696739
vt 0.538249 0.701820
vt 0.811924 0.216687
vt 0.823645 0.472869
vt 0.823645 0.331162
vt 0.633423 0.701820
vt 0.685552 0.562351
vt 0.633423 0.843527
vt 0.685552 0.520196
vt 0.737682 0.286257
vt 0.685552 0.557270
vt 0.385395 0.500163
vt 0.209251 0.727746
vt 0.385395 0.578889
vt 0.101003 0.727746
vt 0.202005 0.869453
vt 0.101003 0.869453
vt 0.505580 0.560113
vt 0.640831 0.553656
vt 0.647287 0.560113
vt 0.141707 0.444332
vt 0.006456 0.450789
vt 0.000000 0.444332
vt 0.707299 0.358394
vt 0.700842 0.223144
vt 0.707299 0.216687
vt 0.505580 0.418406
vt 0.512037 0.553656
vt 0.000000 0.586039
vt 0.135251 0.579583
vt 0.141707 0.586039
vt 0.565592 0.358394
vt 0.700842 0.351938
vt 0.572048 0.223144
vt 0.565592 0.216687
vt 0.135251 0.450789
vt 0.572048 0.351938
vt 0.646140 0.584684
vt 0.645817 0.512877
vt 0.645817 0.591603
vt 0.214164 0.573126
vt 0.206919 0.444332
vt 0.214164 0.444332
vt 0.206919 0.573126
vt 0.199673 0.444332
vt 0.206919 0.444332
vt 0.192427 0.444332
vt 0.199673 0.573126
vt 0.192427 0.573126
vt 0.730176 0.560113
vt 0.737422 0.688907
vt 0.730176 0.688907
vt 0.751913 0.560113
vt 0.759159 0.688907
vt 0.751913 0.688907
vt 0.744668 0.560113
vt 0.751913 0.688907
vt 0.744668 0.688907
vt 0.192427 0.444332
vt 0.185182 0.573126
vt 0.185182 0.444332
vt 0.177936 0.444332
vt 0.170690 0.573126
vt 0.170690 0.444332
vt 0.647287 0.418406
vt 0.512037 0.424862
vt 0.505580 0.701820
vt 0.370330 0.695363
vt 0.499124 0.695363
vt 0.499124 0.566569
vt 0.505580 0.560113
vt 0.006456 0.579583
vt 0.640831 0.424862
vt 0.370330 0.566569
vt 0.363873 0.560113
vt 0.363873 0.701820
vt 0.222166 0.418406
vt 0.963214 0.913762
vt 0.955730 0.704559
vt 0.963214 0.712044
vt 0.945506 0.923986
vt 0.966493 0.138968
vt 0.222166 0.216687
vt 0.431369 0.209203
vt 0.438853 0.216687
vt 0.222166 0.216687
vt 0.980701 0.630348
vt 0.973217 0.421145
vt 0.980701 0.428629
vt 0.973217 0.637832
vt 0.982512 0.921246
vt 0.438853 0.000000
vt 0.431369 0.007484
vt 0.423885 0.216687
vt 0.966493 0.348170
vt 0.959009 0.138968
vt 0.966493 0.146452
vt 0.959009 0.355655
vt 1.000000 0.637832
vt 0.229650 0.007484
vt 0.222166 0.000000
vt 0.239874 0.017708
vt 0.423885 0.418406
vt 0.939710 0.348170
vt 0.932226 0.138968
vt 0.939710 0.146452
vt 0.932226 0.355655
vt 0.221304 0.947173
vt 0.229650 0.209203
vt 0.659256 0.634580
vt 0.532420 0.985234
vt 0.532420 0.843527
vt 0.740255 0.701820
vt 0.633423 0.985234
vt 0.633423 0.843527
vt 0.538249 0.654584
vt 0.431417 0.843527
vt 0.431417 0.701820
vt 0.786092 0.552098
vt 0.786091 0.440877
vt 0.786092 0.425634
vt 0.847087 0.686577
vt 0.847087 0.575356
vt 0.847087 0.560113
vt 0.740255 0.828284
vt 0.740255 0.717063
vt 0.659256 0.649823
vt 0.659256 0.761045
vt 0.659256 0.776287
vt 0.737682 0.323330
vt 0.645081 0.602267
vt 0.740255 0.843527
vt 0.645081 0.604808
vt 0.645081 0.607348
vt 0.645081 0.607348
vt 0.645081 0.607348
vt 0.645081 0.555000
vt 0.645081 0.560113
vt 0.645081 0.560113
vt 0.645081 0.562653
vt 0.645081 0.565194
vt 0.538249 0.649471
vt 0.538249 0.654584
vt 0.538249 0.654584
vt 0.538249 0.657125
vt 0.538249 0.699279
vt 0.538249 0.701820
vt 0.538249 0.701820
vt 0.538249 0.701820
vt 0.786092 0.433255
vt 0.786092 0.425634
vt 0.786092 0.425634
vt 0.786092 0.425634
vt 0.786092 0.582679
vt 0.786092 0.567341
vt 0.786092 0.567341
vt 0.786092 0.559719
vt 0.659256 0.619242
vt 0.659256 0.634580
vt 0.659256 0.634580
vt 0.659256 0.642202
vt 0.659256 0.768666
vt 0.659256 0.776287
vt 0.659256 0.776287
vt 0.659256 0.776287
vt 0.737682 0.325871
vt 0.685552 0.517656
vt 0.740255 0.835906
vt 0.685552 0.559811
vt 0.847087 0.567734
vt 0.740255 0.709441
vt 0.645081 0.607348
vt 0.645081 0.560113
vt 0.847087 0.701820
vt 0.786092 0.567341
vt 0.828796 0.523176
vt 0.828796 0.381469
vt 0.646203 0.583331
vt 0.646166 0.490458
vt 0.646166 0.584130
vt 0.788027 0.345934
vt 0.788027 0.204227
vt 0.646229 0.486399
vt 0.646229 0.582777
vt 0.787876 0.363114
vt 0.787876 0.363114
vt 0.787983 0.350922
vt 0.787920 0.216419
vt 0.787983 0.209215
vt 0.646229 0.582777
vt 0.462802 0.513473
vt 0.462802 0.462425
vt 0.462802 0.462425
vt 0.828796 0.381469
vt 0.788027 0.204227
vt 0.484131 0.452026
vt 0.484131 0.495449
vt 0.468995 0.508240
vt 0.477938 0.455045
vt 0.468995 0.459405
vt 0.830215 0.537038
vt 0.830215 0.537038
vt 0.829208 0.527201
vt 0.829803 0.391306
vt 0.829208 0.385494
vt 0.646140 0.584684
vt 0.646140 0.492119
vt 0.830215 0.395331
vt 0.829803 0.533013
vt 0.484131 0.452026
vt 0.477938 0.500682
vt 0.646229 0.486399
vt 0.787876 0.221407
vt 0.787920 0.358126
vt 0.828796 0.523176
vt 0.788027 0.345934
vt 0.646140 0.492119
vt 0.202005 0.949913
vt 0.326792 0.701820
vt 0.323169 0.843527
vt 0.424171 0.843527
vt 0.104626 0.727746
vt 0.985791 0.358394
vt 0.963214 0.701820
vt 0.922002 0.358394
vt 0.948785 0.358394
vt 0.962993 0.640572
vt 0.980701 0.418406
vt 0.000000 0.222166
vt 0.222166 0.222166
vt 0.647287 0.418406
vt 0.101003 0.869454
vt 0.580561 0.141707
vt 0.222166 0.701820
vt 0.789812 0.141707
vt 0.811924 0.358394
vt 0.685552 0.515115
vt 0.209251 0.586039
vt 0.202005 0.727746
vt 0.206919 0.573126
vt 0.199673 0.573126
vt 0.199673 0.444332
vt 0.737422 0.560113
vt 0.759159 0.560113
vt 0.751913 0.560113
vt 0.192427 0.573126
vt 0.177936 0.573126
vt 0.955730 0.921247
vt 0.966493 0.355655
vt 0.982512 0.704559
vt 1.000000 0.421145
vt 0.221304 0.730486
vt 0.847087 0.560113
vt 0.847087 0.701820
vt 0.737682 0.328411
vt 0.737682 0.281176
vt 0.740255 0.843527
vt 0.740255 0.701820
vt 0.685552 0.562351
vt 0.685552 0.515115
vt 0.847087 0.694198
vt 0.737682 0.283716
vt 0.646203 0.488060
vt 0.462802 0.513473
vn 0.0000 1.0000 -0.0000
vn -1.0000 -0.0000 0.0000
vn 0.0000 0.0000 -1.0000
vn 0.0000 0.0000 1.0000
vn 1.0000 0.0000 0.0000
vn -0.0000 -1.0000 0.0000
vn -0.9610 -0.2764 0.0000
vn 0.0000 0.2764 0.9610
vn -0.9729 0.2311 -0.0000
vn 0.0000 0.2764 -0.9610
vn 0.9729 0.2311 0.0000
vn 0.0000 0.2311 -0.9729
vn 0.9610 0.2764 0.0000
vn -0.9610 0.2764 -0.0000
vn 0.7947 0.6070 0.0000
vn 0.0000 0.6070 0.7947
vn 0.0000 0.6070 -0.7947
vn -0.7947 0.6070 -0.0000
vn 0.0000 0.2311 0.9729
vn -0.0000 -0.6070 0.7947
vn -0.7947 -0.6070 0.0000
vn 0.0000 -0.6070 -0.7947
vn 0.7947 -0.6070 0.0000
vn 0.0000 0.9659 0.2588
vn 0.0000 0.7071 0.7071
vn -0.0000 0.2588 0.9659
vn -0.0000 -0.2588 0.9659
vn -0.0000 -0.7071 0.7071
vn -0.0000 -0.9659 0.2588
vn 0.2588 0.9659 0.0000
vn 0.7071 0.7071 0.0000
vn 0.9659 0.2588 0.0000
vn 0.9659 -0.2588 0.0000
vn 0.7071 -0.7071 -0.0000
vn 0.2588 -0.9659 0.0000
vn 0.0000 0.9659 -0.2588
vn 0.0000 0.7071 -0.7071
vn 0.0000 0.2588 -0.9659
vn 0.0000 -0.2588 -0.9659
vn 0.0000 -0.7071 -0.7071
vn 0.0000 -0.9659 -0.2588
vn -0.2588 0.9659 -0.0000
vn -0.7071 0.7071 -0.0000
vn -0.9659 0.2588 -0.0000
vn -0.9659 -0.2588 0.0000
vn -0.7071 -0.7071 0.0000
vn -0.2588 -0.9659 0.0000
vn -0.2588 0.0000 -0.9659
vn -0.7071 0.0000 -0.7071
vn -0.9659 0.0000 -0.2588
vn 0.9659 0.0000 -0.2588
vn 0.7071 0.0000 -0.7071
vn 0.2588 0.0000 -0.9659
vn -0.9659 0.0000 0.2588
vn -0.7071 0.0000 0.7071
vn -0.2588 0.0000 0.9659
vn 0.2588 0.0000 0.9659
vn 0.7071 0.0000 0.7071
vn 0.9659 0.0000 0.2588
vn -0.0000 -0.2764 0.9610
vn 0.9610 -0.2764 0.0000
vn 0.0000 -0.2764 -0.9610
vn 0.9729 -0.2311 0.0000
vn 0.0000 -0.2311 -0.9729
vn -0.0000 -0.2311 0.9729
vn -0.9729 -0.2311 0.0000
s off
f 1/1/1 78/2/1 8/3/1
f 65/4/2 12/5/2 86/6/2
f 3/7/3 29/8/3 23/9/3
f 77/10/4 10/11/4 15/12/4
f 30/13/5 41/14/5 31/15/5
f 24/16/3 31/17/3 25/18/3
f 7/19/6 66/20/6 2/21/6
f 7/22/4 22/23/4 39/24/4
f 16/25/4 65/26/4 94/27/4
f 14/28/5 94/29/5 90/30/5
f 5/31/6 93/32/6 7/19/6
f 82/33/2 9/34/2 10/35/2
f 3/36/6 89/37/6 5/31/6
f 8/3/1 74/38/1 6/39/1
f 4/40/1 81/41/1 1/1/1
f 69/42/3 13/43/3 9/44/3
f 73/45/5 15/46/5 13/47/5
f 12/48/3 90/49/3 86/50/3
f 16/51/1 12/52/1 11/53/1
f 6/39/1 70/54/1 4/40/1
f 13/55/6 10/56/6 9/57/6
f 17/58/7 36/59/7 27/60/7
f 1/61/8 37/62/8 35/63/8
f 40/64/4 20/65/4 41/66/4
f 22/67/2 3/68/2 23/69/2
f 5/70/5 39/71/5 29/72/5
f 48/73/9 138/74/9 36/59/9
f 6/75/10 47/76/10 45/77/10
f 141/78/11 46/79/11 38/80/11
f 140/81/12 48/82/12 46/83/12
f 108/84/1 112/85/1 34/86/1
f 8/87/13 45/88/13 37/89/13
f 26/90/2 28/91/2 19/92/2
f 133/93/2 98/94/2 107/95/2
f 47/96/14 1/97/14 35/98/14
f 20/99/2 24/100/2 25/101/2
f 22/102/6 63/103/6 39/104/6
f 26/105/1 58/106/1 32/107/1
f 41/108/15 57/109/15 31/110/15
f 23/111/6 54/112/6 22/102/6
f 42/113/1 49/114/1 19/115/1
f 20/116/16 61/117/16 41/108/16
f 31/110/17 51/118/17 25/119/17
f 19/115/1 52/120/1 26/105/1
f 25/119/18 50/121/18 20/116/18
f 138/122/19 38/123/19 36/124/19
f 51/125/2 49/126/2 50/127/2
f 55/128/2 53/129/2 54/130/2
f 57/131/3 52/132/3 51/133/3
f 59/134/3 56/135/3 55/136/3
f 61/137/5 58/138/5 57/139/5
f 63/140/5 60/141/5 59/142/5
f 61/143/4 49/144/4 62/145/4
f 63/146/4 53/147/4 64/148/4
f 29/149/6 55/150/6 23/111/6
f 21/151/20 64/152/20 53/153/20
f 21/151/21 56/154/21 24/155/21
f 32/107/1 62/156/1 42/113/1
f 39/104/6 59/157/6 29/149/6
f 24/155/22 60/158/22 30/159/22
f 30/159/23 64/152/23 40/160/23
f 81/41/24 80/161/24 78/2/24
f 83/162/25 79/163/25 80/164/25
f 79/163/26 82/165/26 77/10/26
f 65/26/27 96/166/27 94/27/27
f 67/167/28 95/168/28 96/169/28
f 95/168/29 66/20/29 93/32/29
f 74/38/30 80/161/30 76/170/30
f 80/171/31 75/172/31 76/173/31
f 79/174/32 73/45/32 75/172/32
f 94/29/33 92/175/33 90/30/33
f 92/176/34 95/168/34 91/177/34
f 95/168/35 89/37/35 91/177/35
f 70/54/36 76/170/36 72/178/36
f 76/179/37 71/180/37 72/181/37
f 75/182/38 69/42/38 71/180/38
f 90/49/39 88/183/39 86/50/39
f 92/176/40 87/184/40 88/185/40
f 91/177/41 85/186/41 87/184/41
f 70/54/42 83/187/42 81/41/42
f 72/188/43 84/189/43 83/190/43
f 71/191/44 82/33/44 84/189/44
f 86/6/45 67/192/45 65/4/45
f 88/185/46 68/193/46 67/167/46
f 68/193/47 85/186/47 66/20/47
f 2/21/6 85/186/6 3/36/6
f 44/194/3 26/195/3 32/196/3
f 34/197/5 32/198/5 42/199/5
f 28/200/4 42/201/4 19/202/4
f 123/203/6 117/204/6 43/205/6
f 118/206/6 102/207/6 33/208/6
f 102/207/5 127/209/5 113/210/5
f 128/211/1 132/212/1 18/213/1
f 98/94/6 122/214/6 17/58/6
f 97/215/4 112/85/4 108/84/4
f 113/210/1 127/209/1 44/216/1
f 133/93/1 107/95/1 28/91/1
f 117/204/3 132/212/3 128/211/3
f 97/215/6 100/217/6 99/218/6
f 100/217/6 101/219/6 99/218/6
f 101/219/6 98/220/6 99/218/6
f 102/221/6 105/222/6 104/223/6
f 105/222/6 106/224/6 104/223/6
f 106/224/6 103/225/6 104/223/6
f 107/226/1 110/227/1 109/228/1
f 110/227/1 111/229/1 109/228/1
f 111/229/1 108/84/1 109/228/1
f 112/85/1 115/230/1 114/231/1
f 115/230/1 116/232/1 114/231/1
f 116/232/1 113/233/1 114/231/1
f 117/204/6 120/234/6 119/235/6
f 120/234/6 121/236/6 119/235/6
f 121/236/6 118/237/6 119/235/6
f 122/238/6 125/239/6 124/240/6
f 125/239/6 126/241/6 124/240/6
f 126/241/6 123/203/6 124/240/6
f 127/242/1 130/243/1 129/244/1
f 130/243/1 131/245/1 129/244/1
f 131/245/1 128/211/1 129/244/1
f 132/212/1 135/246/1 134/247/1
f 135/246/1 136/248/1 134/247/1
f 136/248/1 133/249/1 134/247/1
f 123/203/48 135/246/48 132/212/48
f 126/241/49 136/248/49 135/246/49
f 125/250/50 133/93/50 136/251/50
f 118/206/51 130/252/51 127/209/51
f 121/236/52 131/245/52 130/243/52
f 120/234/53 128/211/53 131/245/53
f 98/94/54 110/253/54 107/95/54
f 101/219/55 111/229/55 110/227/55
f 100/217/56 108/84/56 111/229/56
f 103/225/57 115/230/57 112/85/57
f 106/224/58 116/232/58 115/230/58
f 105/254/59 113/210/59 116/255/59
f 103/225/6 97/215/6 27/256/6
f 36/124/60 33/257/60 27/256/60
f 38/80/61 43/258/61 33/208/61
f 46/83/62 17/259/62 43/205/62
f 37/89/63 139/260/63 142/261/63
f 148/262/4 153/263/4 146/264/4
f 45/77/64 144/265/64 139/266/64
f 35/63/65 142/267/65 137/268/65
f 140/81/1 151/269/1 143/270/1
f 149/271/3 159/272/3 158/273/3
f 142/267/6 147/274/6 137/268/6
f 137/275/6 150/276/6 144/277/6
f 144/277/66 35/98/66 137/275/66
f 139/260/6 155/278/6 142/261/6
f 144/265/6 157/279/6 139/266/6
f 143/280/1 145/281/1 138/74/1
f 148/282/2 152/283/2 149/284/2
f 141/78/1 160/285/1 140/286/1
f 158/287/5 153/288/5 156/289/5
f 145/290/25 153/263/25 154/291/25
f 154/292/31 159/293/31 160/285/31
f 151/294/43 146/295/43 145/281/43
f 150/276/46 148/282/46 149/284/46
f 155/296/28 148/262/28 147/274/28
f 160/297/37 152/298/37 151/269/37
f 157/299/34 156/289/34 155/278/34
f 150/300/40 158/273/40 157/279/40
f 138/122/1 154/291/1 141/301/1
f 1/1/1 81/41/1 78/2/1
f 65/4/2 11/302/2 12/5/2
f 3/7/3 5/303/3 29/8/3
f 77/10/4 82/165/4 10/11/4
f 30/13/5 40/304/5 41/14/5
f 24/16/3 30/305/3 31/17/3
f 7/19/6 93/32/6 66/20/6
f 7/22/4 2/306/4 22/23/4
f 16/25/4 11/307/4 65/26/4
f 14/28/5 16/308/5 94/29/5
f 5/31/6 89/37/6 93/32/6
f 82/33/2 69/309/2 9/34/2
f 3/36/6 85/186/6 89/37/6
f 8/3/1 78/2/1 74/38/1
f 4/40/1 70/54/1 81/41/1
f 69/42/3 73/310/3 13/43/3
f 73/45/5 77/311/5 15/46/5
f 12/48/3 14/312/3 90/49/3
f 16/51/1 14/313/1 12/52/1
f 6/39/1 74/38/1 70/54/1
f 13/55/6 15/314/6 10/56/6
f 17/58/7 48/73/7 36/59/7
f 1/61/8 8/315/8 37/62/8
f 40/64/4 21/316/4 20/65/4
f 22/67/2 2/317/2 3/68/2
f 5/70/5 7/318/5 39/71/5
f 48/73/9 143/280/9 138/74/9
f 6/75/10 4/319/10 47/76/10
f 141/78/11 140/286/11 46/79/11
f 140/81/12 143/270/12 48/82/12
f 114/231/1 34/86/1 112/85/1
f 34/86/1 28/200/1 108/84/1
f 28/200/1 109/228/1 108/84/1
f 8/87/13 6/320/13 45/88/13
f 26/90/2 18/321/2 28/91/2
f 133/93/2 122/214/2 98/94/2
f 47/96/14 4/322/14 1/97/14
f 20/99/2 21/323/2 24/100/2
f 22/102/6 54/112/6 63/103/6
f 26/105/1 52/120/1 58/106/1
f 41/108/15 61/117/15 57/109/15
f 23/111/6 55/150/6 54/112/6
f 42/113/1 62/156/1 49/114/1
f 20/116/16 50/121/16 61/117/16
f 31/110/17 57/109/17 51/118/17
f 19/115/1 49/114/1 52/120/1
f 25/119/18 51/118/18 50/121/18
f 138/122/19 141/301/19 38/123/19
f 51/125/2 52/324/2 49/126/2
f 55/128/2 56/325/2 53/129/2
f 57/131/3 58/326/3 52/132/3
f 59/134/3 60/327/3 56/135/3
f 61/137/5 62/328/5 58/138/5
f 63/140/5 64/329/5 60/141/5
f 61/143/4 50/330/4 49/144/4
f 63/146/4 54/331/4 53/147/4
f 29/149/6 59/157/6 55/150/6
f 21/151/20 40/160/20 64/152/20
f 21/151/21 53/153/21 56/154/21
f 32/107/1 58/106/1 62/156/1
f 39/104/6 63/103/6 59/157/6
f 24/155/22 56/154/22 60/158/22
f 30/159/23 60/158/23 64/152/23
f 81/41/24 83/187/24 80/161/24
f 83/162/25 84/332/25 79/163/25
f 79/163/26 84/332/26 82/165/26
f 65/26/27 67/333/27 96/166/27
f 67/167/28 68/193/28 95/168/28
f 95/168/29 68/193/29 66/20/29
f 74/38/30 78/2/30 80/161/30
f 80/171/31 79/174/31 75/172/31
f 79/174/32 77/311/32 73/45/32
f 94/29/33 96/334/33 92/175/33
f 92/176/34 96/169/34 95/168/34
f 95/168/35 93/32/35 89/37/35
f 70/54/36 74/38/36 76/170/36
f 76/179/37 75/182/37 71/180/37
f 75/182/38 73/310/38 69/42/38
f 90/49/39 92/335/39 88/183/39
f 92/176/40 91/177/40 87/184/40
f 91/177/41 89/37/41 85/186/41
f 70/54/42 72/178/42 83/187/42
f 72/188/43 71/191/43 84/189/43
f 71/191/44 69/309/44 82/33/44
f 86/6/45 88/336/45 67/192/45
f 88/185/46 87/184/46 68/193/46
f 68/193/47 87/184/47 85/186/47
f 2/21/6 66/20/6 85/186/6
f 44/194/3 18/213/3 26/195/3
f 34/197/5 44/216/5 32/198/5
f 28/200/4 34/86/4 42/201/4
f 119/235/6 43/205/6 117/204/6
f 43/205/6 17/259/6 123/203/6
f 17/259/6 124/240/6 123/203/6
f 104/337/6 33/208/6 102/207/6
f 33/208/6 43/258/6 118/206/6
f 43/258/6 119/338/6 118/206/6
f 102/207/5 118/206/5 127/209/5
f 134/247/1 18/213/1 132/212/1
f 18/213/1 44/194/1 128/211/1
f 44/194/1 129/244/1 128/211/1
f 124/339/6 17/58/6 122/214/6
f 17/58/6 27/60/6 98/94/6
f 27/60/6 99/340/6 98/94/6
f 97/215/4 103/225/4 112/85/4
f 129/341/1 44/216/1 127/209/1
f 44/216/1 34/197/1 113/210/1
f 34/197/1 114/342/1 113/210/1
f 109/343/1 28/91/1 107/95/1
f 28/91/1 18/321/1 133/93/1
f 18/321/1 134/344/1 133/93/1
f 117/204/3 123/203/3 132/212/3
f 123/203/48 126/241/48 135/246/48
f 126/241/49 125/239/49 136/248/49
f 125/250/50 122/214/50 133/93/50
f 118/206/51 121/345/51 130/252/51
f 121/236/52 120/234/52 131/245/52
f 120/234/53 117/204/53 128/211/53
f 98/94/54 101/346/54 110/253/54
f 101/219/55 100/217/55 111/229/55
f 100/217/56 97/215/56 108/84/56
f 103/225/57 106/224/57 115/230/57
f 106/224/58 105/222/58 116/232/58
f 105/254/59 102/207/59 113/210/59
f 99/218/6 27/256/6 97/215/6
f 27/256/6 33/257/6 103/225/6
f 33/257/6 104/223/6 103/225/6
f 36/124/60 38/123/60 33/257/60
f 38/80/61 46/79/61 43/258/61
f 46/83/62 48/82/62 17/259/62
f 37/89/63 45/88/63 139/260/63
f 148/262/4 156/347/4 153/263/4
f 45/77/64 47/76/64 144/265/64
f 35/63/65 37/62/65 142/267/65
f 140/81/1 160/297/1 151/269/1
f 149/271/3 152/298/3 159/272/3
f 142/267/6 155/296/6 147/274/6
f 137/275/6 147/348/6 150/276/6
f 144/277/66 47/96/66 35/98/66
f 139/260/6 157/299/6 155/278/6
f 144/265/6 150/300/6 157/279/6
f 143/280/1 151/294/1 145/281/1
f 148/282/2 146/295/2 152/283/2
f 141/78/1 154/292/1 160/285/1
f 158/287/5 159/293/5 153/288/5
f 145/290/25 146/264/25 153/263/25
f 154/292/31 153/288/31 159/293/31
f 151/294/43 152/283/43 146/295/43
f 150/276/46 147/348/46 148/282/46
f 155/296/28 156/347/28 148/262/28
f 160/297/37 159/272/37 152/298/37
f 157/299/34 158/287/34 156/289/34
f 150/300/40 149/271/40 158/273/40
f 138/122/1 145/290/1 154/291/1
